# xmcd
#
# Track frame offsets: 
#        183
#        23658
#        40628
#        65918
#        91168
#        144595
#        167708
#        221888
#        258078
#        274220
#        287583
#
# Disc length: 4041 seconds
#
# Revision: 3
# Processed by: cddbd v1.5.2PL0 Copyright (c) Steve Scherf et al.
# Submitted via: ExactAudioCopy v1.0b6
#
DISCID=9f0fc70b
DTITLE=Average White Band - Live On The Test
DYEAR=1994
DGENRE=funk/soul/rap /
TTITLE0=Put it where you want it (1973)
TTITLE1=Show your hand (1973)
TTITLE2=If I ever lose this heaven (1977)
TTITLE3=Cloudy (1977)
TTITLE4=Pick up the pieces (1977)
TTITLE5=Person to person (1977)
TTITLE6=I heard through the grapevine (1977)
TTITLE7=A star in the ghetto (1978 feat. Ben E. King)
TTITLE8=When will you be mine (1978)
TTITLE9=Please don't fall in love (1978)
TTITLE10=Atlantic avenue (1978)
EXTD=Label: Zomba\nBestellnummer: 604.1005.2\nFirma: rough trade Distr
EXTD=ibution GmbH\n\n\n Für freedb bereitgestelt von:\n    KELLER'S Mu
EXTD=sik-Katalog 2006 2006
EXTT0=
EXTT1=
EXTT2=
EXTT3=
EXTT4=
EXTT5=
EXTT6=
EXTT7=
EXTT8=
EXTT9=
EXTT10=
PLAYORDER=
